# xmcd CD database file
#
# Track frame offsets:
#	150
#	15725
#	25648
#	49191
#	60793
#	80144
#	94638
#	110563
#	130797
#	148368
#	158821
#	173112
#	190846
#	201596
#
# Disc length: 3225 seconds
#
# Revision: 0
# Processed by: cddbd v1.5.2PL0 Copyright (c) Steve Scherf et al.
# Submitted via: CDex 1.70beta2
#
DISCID=bd0c970e
DTITLE=Fantastic Mohren Blues Band, The - Last Tapes
DYEAR=1999
DGENRE=Blues
TTITLE0=Rambling On My Mind
TTITLE1=It's Good Like That
TTITLE2=St. James Infirmary
TTITLE3=Freight Train
TTITLE4=How Long Blues
TTITLE5=Under The Boardwalk
TTITLE6=Cocaine Blues
TTITLE7=Mean ol' Frisco
TTITLE8=He Was A Friend Of Mine
TTITLE9=San Francisco Bay Blues
TTITLE10=It's A Shame
TTITLE11=Pay Day Blues
TTITLE12=Nobody Knows You When You're Down And Out
TTITLE13=Lily Of The West
EXTD=YEAR: 1999
EXTT0=
EXTT1=
EXTT2=
EXTT3=
EXTT4=
EXTT5=
EXTT6=
EXTT7=
EXTT8=
EXTT9=
EXTT10=
EXTT11=
EXTT12=
EXTT13=
PLAYORDER=
